<?xml version="1.0" encoding="utf-8"?>
<!-- Generator: Adobe Illustrator 14.0.0, SVG Export Plug-In . SVG Version: 6.00 Build 43363)  -->
<!DOCTYPE svg PUBLIC "-//W3C//DTD SVG 1.1//EN" "http://www.w3.org/Graphics/SVG/1.1/DTD/svg11.dtd">
<svg version="1.1" id="Layer_1" xmlns="http://www.w3.org/2000/svg" xmlns:xlink="http://www.w3.org/1999/xlink" x="0px" y="0px"
	 width="250px" height="76.924px" viewBox="0 0 250 76.924" enable-background="new 0 0 250 76.924" xml:space="preserve">
<g>
	<path fill="#FF0000" d="M56.02,40.98c0,0-8.485,0-9.192,0c-13.522,0.266-12.815-11.224-12.815-11.224v-9.898H18.016v15.865
		c0,2.209,2.077,21.344,21.962,21.344c11.843,0,16.042,0,16.042,0V40.98"/>
	<path fill="#FF7F00" d="M35.692,19.858v8.837c0,0-1.326,10.783,10.296,10.694c1.546,0,10.032,0,10.032,0v-6.981h-4.464
		c0,0-8.617,1.104-8.528-5.524c0-0.84,0-7.026,0-7.026H35.692"/>
	<path fill="#FF7F00" d="M44.883,19.858v5.877c0,0-0.663,5.214,6.187,5.038c0.751,0,4.95,0,4.95,0v-5.17h-2.785
		c0,0-3.358,0.22-3.314-3.535c0-1.238,0-2.21,0-2.21H44.883"/>
	<path fill="#FF7F00" d="M51.777,19.858h4.243v4.11c0,0-4.243,0.663-4.243-1.679C51.777,20.521,51.777,19.858,51.777,19.858"/>
	<path d="M222.659,39.39c-4.462-1.016-8.838-1.369-8.838-4.109c0-2.209,2.563-2.563,4.332-2.563c2.783,0,5.124,0.795,5.346,3.756
		h7.424c-0.618-6.805-6.319-8.838-12.551-8.838c-2.872,0-5.787,0.442-8.086,1.591l0.266-0.84h-7.999l-5.214,18.737h-0.132
		l-4.861-18.737h-7.602l-4.728,18.781h-0.089l-5.214-18.781h-8.265l0.266,0.708c-2.475-1.105-5.611-1.458-8.439-1.458
		c-0.31,0-0.618,0-0.884,0.044c-5.569,0.177-11.004,2.077-12.285,7.556V19.858h-7.822v14.804c-2.121-4.816-6.318-7.026-10.296-7.026
		c-0.929,0-1.812,0.088-2.695,0.266c-2.519,0.53-4.817,1.767-6.231,3.844h-0.133V19.858h-7.821v14.185
		c-2.386-4.021-6.85-6.408-12.55-6.408c-8.926,0-14.715,5.79-14.715,14.626c0,2.122,0.354,4.11,1.016,5.834
		c-2.474,0-5.568,0-7.953,0c-6.408,0-6.32-3.005-6.32-5.436V19.858h-7.866c0,0,0.089,22.582,0,26.956
		c0,8.751,6.85,9.016,12.86,9.016h13.389v-2.033c2.475,1.944,5.701,3.006,9.589,3.006c5.701,0,10.164-2.387,12.55-6.409v5.657h7.424
		v-3.535h0.133c1.325,2.387,3.711,3.668,6.628,4.109c0.84,0.133,1.767,0.178,2.695,0.178c3.978,0,8.175-2.21,10.296-7.027v6.275
		h7.822v-3.182c1.635,2.651,4.86,3.934,8.573,3.934c1.237,0,2.474-0.134,3.712-0.398c2.208-0.442,4.286-1.414,5.877-3.05
		c0.044,0.928,0.265,1.857,0.53,2.696h7.954c-0.707-1.105-1.017-3.624-1.017-6.143v-8.309l4.729,14.451h8.087l4.861-18.561h0.087
		l5.038,18.561h8.087l5.259-16.307c1.547,2.432,4.817,3.447,8.131,4.153c5.612,1.194,8.882,1.989,8.882,4.287
		c0,2.696-2.872,3.535-5.169,3.535c-3.05,0-5.922-1.326-5.966-4.64h-7.424c0.354,7.291,6.761,9.723,13.39,9.723
		c6.451,0,12.991-2.343,12.991-9.635C231.719,42.041,227.211,40.406,222.659,39.39z M97.558,51.056
		c-5.303,0-6.894-4.418-6.894-8.794c0-4.418,1.59-8.881,6.894-8.881c5.259,0,6.85,4.463,6.85,8.881
		C104.407,46.638,102.816,51.056,97.558,51.056z M124.337,51.056h-0.044c-4.596,0-6.628-4.242-6.628-8.794
		c0-4.684,2.032-8.881,6.628-8.881h0.044c4.596,0,6.629,4.198,6.629,8.881C130.966,46.857,128.933,51.056,124.337,51.056z
		 M162.959,45.355c0,1.591-0.221,5.922-5.567,6.318c-0.266,0-0.53,0.045-0.796,0.045c-2.52,0-4.773-0.706-4.773-3.535
		c0-2.783,2.21-3.579,4.597-4.064c0.309-0.045,0.664-0.089,0.973-0.134c2.164-0.309,4.419-0.485,5.567-1.457V45.355z
		 M157.392,39.654c-1.149,0.134-2.431,0.267-3.712,0.487c-3.403,0.442-6.85,1.325-8.573,4.021v-7.248h7.601
		c0.266-2.828,1.989-4.065,4.685-4.198c0.132,0,0.309,0,0.485,0c2.739,0,5.082,0.53,5.082,3.756
		C162.959,38.771,160.572,39.258,157.392,39.654z"/>
	<g>
		<path d="M230.04,24.366c-0.045,0-0.045,0-0.045,0c-1.061,0-1.988,0.707-1.988,1.944c0,1.237,0.928,1.944,1.988,1.944
			c0,0,0,0,0.045,0c1.017-0.044,1.944-0.751,1.944-1.944C231.984,25.072,231.057,24.366,230.04,24.366z M230.04,27.812
			c-0.045,0-0.045,0-0.045,0v-0.044c-0.795,0.044-1.413-0.618-1.413-1.458c0-0.885,0.618-1.503,1.413-1.503c0,0,0,0,0.045,0
			c0.75,0,1.368,0.619,1.368,1.503C231.408,27.149,230.79,27.768,230.04,27.812z"/>
		<path d="M230.879,25.868c0-0.442-0.31-0.619-0.839-0.619c-0.045,0-0.045,0-0.045,0H229.2v2.077h0.486v-0.884h0.176l0.178,0.266
			l0.353,0.619h0.53l-0.574-0.884C230.658,26.397,230.879,26.266,230.879,25.868z M230.04,26.088h-0.354v-0.485h0.309
			c0,0,0,0,0.045,0c0.132,0,0.353,0.044,0.353,0.22C230.393,26.088,230.261,26.088,230.04,26.088z"/>
	</g>
</g>
</svg>
